<?xml version="1.0" encoding="UTF-8" standalone="no"?>
<svg
   xmlns:dc="http://purl.org/dc/elements/1.1/"
   xmlns:cc="http://creativecommons.org/ns#"
   xmlns:rdf="http://www.w3.org/1999/02/22-rdf-syntax-ns#"
   xmlns:svg="http://www.w3.org/2000/svg"
   xmlns="http://www.w3.org/2000/svg"
   xmlns:sodipodi="http://sodipodi.sourceforge.net/DTD/sodipodi-0.dtd"
   xmlns:inkscape="http://www.inkscape.org/namespaces/inkscape"
   height="24"
   viewBox="0 0 24 24"
   width="24"
   version="1.1"
   id="svg3779"
   sodipodi:docname="external_blue.svg"
   inkscape:version="0.92.3 (2405546, 2018-03-11)">
  <metadata
     id="metadata3785">
    <rdf:RDF>
      <cc:Work
         rdf:about="">
        <dc:format>image/svg+xml</dc:format>
        <dc:type
           rdf:resource="http://purl.org/dc/dcmitype/StillImage" />
        <dc:title></dc:title>
      </cc:Work>
    </rdf:RDF>
  </metadata>
  <defs
     id="defs3783" />
  <sodipodi:namedview
     pagecolor="#ffffff"
     bordercolor="#666666"
     borderopacity="1"
     objecttolerance="10"
     gridtolerance="10"
     guidetolerance="10"
     inkscape:pageopacity="0"
     inkscape:pageshadow="2"
     inkscape:window-width="1916"
     inkscape:window-height="1041"
     id="namedview3781"
     showgrid="false"
     inkscape:zoom="35.875"
     inkscape:cx="7.3728223"
     inkscape:cy="12"
     inkscape:window-x="0"
     inkscape:window-y="18"
     inkscape:window-maximized="0"
     inkscape:current-layer="svg3779" />
  <path
     class="heroicon-ui"
     d="M19 6.41L8.7 16.71a1 1 0 1 1-1.4-1.42L17.58 5H14a1 1 0 0 1 0-2h6a1 1 0 0 1 1 1v6a1 1 0 0 1-2 0V6.41zM17 14a1 1 0 0 1 2 0v5a2 2 0 0 1-2 2H5a2 2 0 0 1-2-2V7c0-1.1.9-2 2-2h5a1 1 0 0 1 0 2H5v12h12v-5z"
     id="path3777" />
  <path
     style="stroke-width:0.02787456"
     d="M 4.5190416,20.923689 C 3.8399376,20.745409 3.3467987,20.283978 3.1058834,19.601394 L 3.0271777,19.378397 3.0194502,13.10662 C 3.0107482,6.0438283 2.9939401,6.6081599 3.2273928,6.1249289 3.3363939,5.899304 3.3917897,5.8243476 3.6091549,5.6083642 3.8821921,5.3370627 4.0886802,5.2092229 4.4487805,5.08854 L 4.6439024,5.023147 7.3573993,5.015177 c 3.0227927,-0.00887 2.9196907,-0.014641 3.2028057,0.179177 0.621083,0.4251873 0.539496,1.3616022 -0.148003,1.6987016 l -0.165512,0.081155 -2.6271778,0.00765 -2.6271777,0.00765 v 6.0062834 6.006283 h 6.0062795 6.006279 l 0.0077,-2.613241 0.0077,-2.61324 0.07416,-0.158193 c 0.210889,-0.449866 0.681848,-0.685021 1.139398,-0.568912 0.349492,0.08869 0.652047,0.38991 0.723599,0.720411 0.02272,0.104945 0.02915,0.915112 0.02284,2.877774 l -0.0088,2.731707 -0.07827,0.222997 c -0.112264,0.319867 -0.277742,0.584491 -0.505497,0.808362 -0.232378,0.228417 -0.471968,0.375937 -0.782091,0.48155 l -0.222997,0.07594 -6.327526,0.0056 c -6.2083408,0.0055 -6.3314529,0.0046 -6.5360104,-0.04914 z"
     id="path3787"
     inkscape:connector-curvature="0" />
  <path
     style="stroke-width:0.02787456;stroke:#007bff;stroke-opacity:1"
     d="M 4.5215879,20.924365 C 3.8370669,20.744493 3.3454446,20.285216 3.105443,19.601394 L 3.027178,19.378397 3.019478,13.10662 C 3.0108134,6.0451831 2.9942701,6.6026747 3.2266848,6.1240418 3.3366607,5.8975583 3.3920415,5.8228375 3.6093426,5.6077532 3.8821819,5.3376972 4.0913265,5.2083361 4.4487805,5.08854 L 4.6439024,5.023147 7.3573993,5.015177 c 3.0227927,-0.00887 2.9196907,-0.014641 3.2028057,0.179177 0.621526,0.4254905 0.540152,1.3607126 -0.147786,1.6984852 l -0.165729,0.081372 -2.6271778,0.00765 -2.6271777,0.00765 v 6.0062828 6.006283 h 6.0062795 6.006279 l 0.0077,-2.613241 0.0077,-2.61324 0.07871,-0.170325 c 0.203196,-0.439676 0.705016,-0.682435 1.149692,-0.556171 0.343444,0.09752 0.639015,0.397699 0.708748,0.719802 0.02272,0.104945 0.02915,0.915112 0.02284,2.877774 l -0.0088,2.731707 -0.07585,0.223584 c -0.21151,0.623454 -0.653353,1.063688 -1.304541,1.299792 l -0.180583,0.06547 -6.341463,0.0056 c -6.1978517,0.0055 -6.3461276,0.0044 -6.5474021,-0.0485 z"
     id="path3789"
     inkscape:connector-curvature="0" />
  <path
     style="fill:#007bff;stroke:#007bff;stroke-width:0.02787456;stroke-opacity:1;fill-opacity:1"
     d="M 4.8,20.92445 C 4.0563462,20.870777 3.4708636,20.419854 3.1527114,19.655752 L 3.0720465,19.462021 3.0512302,14.625784 C 3.0298773,9.6649229 3.041001,7.186485 3.0868227,6.6954704 3.110003,6.4470757 3.1270128,6.3878913 3.2430421,6.1519164 3.3534437,5.9273866 3.411799,5.8489294 3.6266941,5.636106 3.9000111,5.3654239 4.1212924,5.2284349 4.4850835,5.1047016 L 4.6843291,5.0369338 7.236938,5.037653 c 1.4182389,3.995e-4 2.6751325,0.012633 2.828316,0.027529 0.307035,0.029856 0.439283,0.088062 0.6187,0.2723052 0.16689,0.1713801 0.242291,0.3497441 0.255911,0.6053697 0.0096,0.1809802 4.96e-4,0.2531783 -0.04854,0.3831822 -0.07486,0.1984716 -0.277901,0.4264248 -0.47908,0.5378613 l -0.148832,0.082441 -2.648084,0.013937 -2.6480836,0.013937 v 6.0209056 6.020906 l 6.0233056,0.007 6.023306,0.007 0.01848,-1.651631 c 0.01016,-0.908397 0.01849,-2.095171 0.01851,-2.637276 l 2.6e-5,-0.985645 0.08754,-0.164239 c 0.246965,-0.463354 0.791959,-0.670375 1.227449,-0.466259 0.201807,0.09459 0.381032,0.259962 0.484878,0.447408 l 0.08167,0.147412 0.0078,2.829268 0.0078,2.829268 -0.05976,0.167248 c -0.123918,0.346778 -0.280048,0.603027 -0.500719,0.821805 -0.23936,0.237307 -0.426848,0.357845 -0.766112,0.492543 l -0.235038,0.09332 -6.153818,-0.0044 C 7.8479635,20.946535 4.9533101,20.935515 4.8,20.92445 Z"
     id="path4598"
     inkscape:connector-curvature="0" />
  <path
     style="fill:#007bff;fill-opacity:1;stroke:#007bff;stroke-width:0.02787456;stroke-opacity:1"
     d="m 7.7268293,17.012859 c -0.6046487,-0.154509 -0.920713,-0.782308 -0.682538,-1.355726 0.057921,-0.139448 0.5368314,-0.626848 5.2999357,-5.393892 2.879943,-2.8823253 5.236261,-5.2499211 5.236261,-5.2613239 0,-0.011403 -0.838142,-0.020732 -1.862537,-0.020732 -2.047892,0 -2.011449,0.00275 -2.274278,-0.1713451 C 13.164209,4.6247302 12.985063,4.2456423 13.019335,3.9119064 13.05623,3.5526409 13.309629,3.2155709 13.644554,3.080244 l 0.15893,-0.064216 3.08014,-0.00814 c 2.140709,-0.00566 3.134453,0.00117 3.25822,0.022395 0.09794,0.016795 0.236172,0.059973 0.307172,0.095951 0.161318,0.081746 0.377588,0.3100979 0.457485,0.4830428 l 0.06075,0.1314907 v 3.261324 3.2613245 l -0.07789,0.158608 c -0.10138,0.206448 -0.332,0.417823 -0.542414,0.49715 -0.228756,0.08624 -0.571705,0.06903 -0.782834,-0.03929 -0.291521,-0.149562 -0.482736,-0.413207 -0.536144,-0.739231 -0.01405,-0.08579 -0.02563,-0.9649693 -0.02572,-1.9537239 l -1.61e-4,-1.7977357 -5.261324,5.2580976 c -4.97475,4.971699 -5.2697017,5.261147 -5.4151246,5.314085 -0.2081547,0.07577 -0.4293329,0.09479 -0.5988131,0.05148 z"
     id="path4600"
     inkscape:connector-curvature="0" />
</svg>
